<svg width="16" height="17" viewBox="0 0 16 17" fill="none" xmlns="http://www.w3.org/2000/svg">
<g clip-path="url(#clip0_4001_1706)">
<path d="M13.892 7.26998L2.60553 1.76434C2.50846 1.71699 2.40187 1.69238 2.29387 1.69238C1.90127 1.69238 1.58301 2.01065 1.58301 2.40324V2.42376C1.58301 2.51915 1.5947 2.61418 1.61784 2.70672L2.70049 7.03729C2.73006 7.15559 2.83007 7.24297 2.95124 7.25645L7.70982 7.78518C7.87484 7.8035 7.99967 7.94297 7.99967 8.10905C7.99967 8.27512 7.87484 8.4146 7.70982 8.43292L2.95124 8.96165C2.83007 8.97512 2.73006 9.06251 2.70049 9.18081L1.61784 13.5114C1.5947 13.6039 1.58301 13.699 1.58301 13.7943V13.8149C1.58301 14.2074 1.90127 14.5257 2.29387 14.5257C2.40187 14.5257 2.50846 14.5011 2.60553 14.4537L13.892 8.94812C14.2128 8.79167 14.4163 8.46599 14.4163 8.10905C14.4163 7.75211 14.2128 7.42643 13.892 7.26998Z" fill="#050209"/>
</g>
<defs>
<clipPath id="clip0_4001_1706">
<rect width="14" height="14" fill="white" transform="translate(1 1.10938)"/>
</clipPath>
</defs>
</svg>
